<svg xmlns="http://www.w3.org/2000/svg" viewBox="0 0 256 256" role="img" aria-label="Engineer avatar">
  <defs>
    <radialGradient id="bg" cx="50%" cy="32%" r="72%">
      <stop offset="0" stop-color="#dff6ff" stop-opacity="0.45"/>
      <stop offset="0.55" stop-color="#26324d"/>
      <stop offset="1" stop-color="#050814"/>
    </radialGradient>
  </defs>
  <rect width="256" height="256" rx="42" fill="url(#bg)"/>
  <circle cx="128" cy="78" r="36" fill="#dff6ff" opacity="0.9"/>
  <path d="M70 214c8-48 34-76 58-76s50 28 58 76" fill="#18233f" stroke="#8fd8ff" stroke-width="7"/>
  <path d="M82 74h92l-12-30H94z" fill="#f5d77a" opacity="0.95"/>
  <circle cx="128" cy="132" r="40" fill="none" stroke="#f5d77a" stroke-width="9"/>
  <path d="M128 92v18M128 154v18M88 132h18M150 132h18M100 104l13 13M143 147l13 13M156 104l-13 13M113 147l-13 13" stroke="#91f5b3" stroke-width="7" stroke-linecap="round"/>
  <text x="128" y="236" text-anchor="middle" fill="#f5d77a" font-family="Arial" font-size="18" font-weight="700">ENGINEER</text>
</svg>
