<svg xmlns="http://www.w3.org/2000/svg" viewBox="0 0 256 256" role="img" aria-label="Healer avatar">
  <defs>
    <radialGradient id="bg" cx="50%" cy="32%" r="72%">
      <stop offset="0" stop-color="#91f5b3" stop-opacity="0.58"/>
      <stop offset="0.55" stop-color="#123a35"/>
      <stop offset="1" stop-color="#050814"/>
    </radialGradient>
  </defs>
  <rect width="256" height="256" rx="42" fill="url(#bg)"/>
  <circle cx="128" cy="78" r="37" fill="#e6fff0" opacity="0.92"/>
  <path d="M70 214c8-48 34-76 58-76s50 28 58 76" fill="#12382f" stroke="#91f5b3" stroke-width="7"/>
  <path d="M128 34c-22 25-36 50-36 72 0 20 16 36 36 36s36-16 36-36c0-22-14-47-36-72z" fill="none" stroke="#f5d77a" stroke-width="9"/>
  <path d="M128 84v48M104 108h48" stroke="#91f5b3" stroke-width="12" stroke-linecap="round"/>
  <path d="M74 166c26-20 55-23 86-11" fill="none" stroke="#dff6ff" stroke-width="7" stroke-linecap="round" opacity="0.75"/>
  <text x="128" y="236" text-anchor="middle" fill="#f5d77a" font-family="Arial" font-size="18" font-weight="700">HEALER</text>
</svg>
