<svg xmlns="http://www.w3.org/2000/svg" width="420" height="520" viewBox="0 0 420 520">
  <defs><linearGradient id="bg" x1="0" x2="1" y1="0" y2="1"><stop stop-color="#141827"/><stop offset="1" stop-color="#c05621"/></linearGradient></defs>
  <rect width="420" height="520" rx="42" fill="url(#bg)"/>
  <circle cx="210" cy="182" r="104" fill="#6f4732"/>
  <path d="M116 158c28-76 164-78 190 0-44-26-144-26-190 0z" fill="#211410"/>
  <circle cx="174" cy="188" r="12" fill="#1b1716"/><circle cx="246" cy="188" r="12" fill="#1b1716"/>
  <path d="M172 236c31 24 62 24 76 0" stroke="#2b1710" stroke-width="9" fill="none" stroke-linecap="round"/>
  <path d="M100 392c18-78 202-78 220 0v80H100z" fill="#7c3f1d"/>
  <circle cx="174" cy="356" r="22" fill="#f4d35e" opacity=".25"/><circle cx="246" cy="356" r="22" fill="#f4d35e" opacity=".25"/>
  <path d="M196 356h28" stroke="#f4d35e" stroke-width="8"/>
  <text x="210" y="454" text-anchor="middle" font-family="Georgia" font-size="29" fill="#f4d35e">DIPLOMAT</text>
  <text x="210" y="84" text-anchor="middle" font-family="Georgia" font-size="58" fill="#f4d35e">◇</text>
</svg>
