<svg xmlns="http://www.w3.org/2000/svg" width="420" height="520" viewBox="0 0 420 520">
  <defs><linearGradient id="bg" x1="0" x2="1" y1="0" y2="1"><stop stop-color="#101827"/><stop offset="1" stop-color="#3182ce"/></linearGradient></defs>
  <rect width="420" height="520" rx="42" fill="url(#bg)"/>
  <circle cx="210" cy="182" r="104" fill="#8c5d3f"/>
  <path d="M118 158c34-82 157-66 184 0-45-28-138-28-184 0z" fill="#151313"/>
  <circle cx="174" cy="188" r="12" fill="#1b1716"/><circle cx="246" cy="188" r="12" fill="#1b1716"/>
  <circle cx="174" cy="188" r="26" fill="none" stroke="#f4d35e" stroke-width="6"/><circle cx="246" cy="188" r="26" fill="none" stroke="#f4d35e" stroke-width="6"/>
  <path d="M174 240c26 18 56 18 72 0" stroke="#2b1710" stroke-width="9" fill="none" stroke-linecap="round"/>
  <path d="M100 392c18-78 202-78 220 0v80H100z" fill="#1f4e79"/>
  <text x="210" y="454" text-anchor="middle" font-family="Georgia" font-size="29" fill="#f4d35e">INVENTOR</text>
  <text x="210" y="84" text-anchor="middle" font-family="Georgia" font-size="58" fill="#f4d35e">⚙</text>
</svg>
