<svg xmlns="http://www.w3.org/2000/svg" width="420" height="520" viewBox="0 0 420 520">
  <defs><linearGradient id="bg" x1="0" x2="1" y1="0" y2="1"><stop stop-color="#0b1c2d"/><stop offset="1" stop-color="#2f855a"/></linearGradient></defs>
  <rect width="420" height="520" rx="42" fill="url(#bg)"/>
  <circle cx="210" cy="182" r="104" fill="#7a4f35"/>
  <path d="M112 155c32-66 164-66 196 0-50-18-142-18-196 0z" fill="#19110f"/>
  <circle cx="174" cy="188" r="12" fill="#1b1716"/><circle cx="246" cy="188" r="12" fill="#1b1716"/>
  <path d="M173 238c24 20 55 20 74 0" stroke="#2b1710" stroke-width="9" fill="none" stroke-linecap="round"/>
  <path d="M100 392c18-78 202-78 220 0v80H100z" fill="#1f5f48"/>
  <path d="M210 336l56 38-22 68h-68l-22-68z" fill="#f4d35e" opacity=".35"/>
  <text x="210" y="454" text-anchor="middle" font-family="Georgia" font-size="28" fill="#f4d35e">CARETAKER</text>
  <text x="210" y="84" text-anchor="middle" font-family="Georgia" font-size="58" fill="#f4d35e">◆</text>
</svg>
